<?xml version="1.0" encoding="UTF-8"?>
<svg version="1.1" xmlns="http://www.w3.org/2000/svg" width="100" height="100">
<path d="M0 0 C5.74503017 3.28821239 8.86521794 7.83688343 11.9375 13.5625 C12.75590226 16.75426883 12.69107872 19.72124267 12.5625 23 C10.2525 23 7.9425 23 5.5625 23 C5.23378906 21.89591797 5.23378906 21.89591797 4.8984375 20.76953125 C2.82962922 14.4033204 1.26234126 10.63819655 -4.4375 7 C-9.65523583 5.26075472 -14.60293322 5.30771065 -19.75 7.25 C-24.72423335 10.48903567 -27.05880877 13.14056227 -28.4375 19 C-29.09399209 24.90842882 -27.83479826 29.20626626 -24.4375 34 C-19.4619741 38.0426148 -15.56889543 39.09673325 -9.30175781 39.20532227 C-8.28100159 39.22526749 -7.26024536 39.24521271 -6.20855713 39.26576233 C-5.11363953 39.28247482 -4.01872192 39.29918732 -2.890625 39.31640625 C-1.7642865 39.33718735 -0.637948 39.35796844 0.52252197 39.37937927 C4.11911949 39.44474333 7.71578977 39.50369885 11.3125 39.5625 C13.7513096 39.6056977 16.19011184 39.6493124 18.62890625 39.69335938 C24.606694 39.8004113 30.58455407 39.90220217 36.5625 40 C36.5625 42.31 36.5625 44.62 36.5625 47 C29.17934838 47.07637444 21.79629954 47.12873584 14.4128418 47.16479492 C11.90368848 47.17983529 9.39456126 47.20027272 6.88549805 47.22631836 C3.26865175 47.26291014 -0.34784542 47.27977448 -3.96484375 47.29296875 C-5.63413185 47.31619453 -5.63413185 47.31619453 -7.33714294 47.33988953 C-15.55885254 47.34164636 -23.80279323 46.53567369 -30.0859375 40.62109375 C-35.49933068 34.12815107 -37.2835453 27.57209343 -36.91796875 19.18359375 C-35.77253923 11.59395911 -32.23395387 6.00959068 -26.37890625 1.15625 C-18.52839146 -3.51930811 -8.24945425 -3.70663829 0 0 Z " fill="#D9181F" transform="translate(63.4375,28)"/>
<path d="M0 0 C4.66473371 1.70442193 7.39587028 3.75623304 10 8 C10.75 11.8125 10.75 11.8125 11 15 C8.69 15 6.38 15 4 15 C3.649375 14.030625 3.29875 13.06125 2.9375 12.0625 C1.25173581 8.67843468 1.25173581 8.67843468 -2.4375 7.875 C-5.98724216 7.70234934 -5.98724216 7.70234934 -8.5 9.5625 C-10.25783088 11.95787987 -10.25783088 11.95787987 -10.0625 15.0625 C-9.24858279 18.04549299 -9.24858279 18.04549299 -7.1340332 19.65161133 C-2.41420247 21.68227466 2.11868372 21.48063474 7.20703125 21.51171875 C8.82782845 21.53864555 8.82782845 21.53864555 10.48136902 21.56611633 C13.92503992 21.62020263 17.36857232 21.65411045 20.8125 21.6875 C23.15040989 21.72067447 25.48830151 21.75516424 27.82617188 21.79101562 C33.55065706 21.87592819 39.2751602 21.94428531 45 22 C45 24.31 45 26.62 45 29 C37.8834256 29.10176424 30.7670402 29.17161829 23.64990234 29.21972656 C21.2308857 29.23979065 18.81191724 29.26704843 16.39306641 29.30175781 C12.90775632 29.35050341 9.42308984 29.37302164 5.9375 29.390625 C4.86322754 29.41127014 3.78895508 29.43191528 2.68212891 29.45318604 C-3.64233399 29.45505851 -8.82372864 28.89504587 -14 25 C-16.80707681 21.79768537 -17.91620072 18.68236557 -18.4375 14.4375 C-17.78019761 9.27298119 -16.3122195 6.18419809 -12.4375 2.6875 C-8.30112708 -0.17614279 -4.96101372 -0.50905924 0 0 Z " fill="#D9181F" transform="translate(55,36)"/>
<path d="M0 0 C5.61 0 11.22 0 17 0 C17 16.17 17 32.34 17 49 C14.36 49 11.72 49 9 49 C9 35.14 9 21.28 9 7 C6.03 7 3.06 7 0 7 C0 4.69 0 2.38 0 0 Z " fill="#D9181F" transform="translate(7,26)"/>
<path d="M0 0 C4.62 0 9.24 0 14 0 C14 13.2 14 26.4 14 40 C11.69 40 9.38 40 7 40 C7 29.44 7 18.88 7 8 C4.69 8 2.38 8 0 8 C0 5.36 0 2.72 0 0 Z " fill="#D9181F" transform="translate(0,35)"/>
<path d="M0 0 C2.5 0.25 2.5 0.25 4.5 2.25 C4.75 4.75 4.75 4.75 4.5 7.25 C2.5 9.25 2.5 9.25 0 9.5 C-2.5 9.25 -2.5 9.25 -4.5 7.25 C-4.75 4.75 -4.75 4.75 -4.5 2.25 C-2.5 0.25 -2.5 0.25 0 0 Z M-2.5 2.25 C-2.83 3.24 -3.16 4.23 -3.5 5.25 C-2.84 5.91 -2.18 6.57 -1.5 7.25 C-1.5 5.6 -1.5 3.95 -1.5 2.25 C-1.83 2.25 -2.16 2.25 -2.5 2.25 Z M-0.5 6.25 C-0.83 6.91 -1.16 7.57 -1.5 8.25 C-0.51 7.92 0.48 7.59 1.5 7.25 C0.84 6.92 0.18 6.59 -0.5 6.25 Z " fill="#D9171F" transform="translate(88.5,25.75)"/>
</svg>
